<svg width="25" height="35" viewBox="0 0 25 35" fill="none" xmlns="http://www.w3.org/2000/svg">
<path d="M19.4046 8.78125H7.76248C6.69529 8.78125 5.82212 9.65692 5.82212 10.7272V22.4028C5.82212 23.4731 6.69529 24.3488 7.76248 24.3488H19.4046C20.4718 24.3488 21.345 23.4731 21.345 22.4028V10.7272C21.345 9.65692 20.4718 8.78125 19.4046 8.78125ZM11.1581 16.0785C11.1581 16.8861 10.5081 17.538 9.70284 17.538H8.73266V19.4839H7.27739V13.6461H9.70284C10.5081 13.6461 11.1581 14.298 11.1581 15.1055V16.0785ZM16.009 18.0245C16.009 18.832 15.359 19.4839 14.5537 19.4839H12.1283V13.6461H14.5537C15.359 13.6461 16.009 14.298 16.009 15.1055V18.0245ZM19.8897 15.1055H18.4345V16.0785H19.8897V17.538H18.4345V19.4839H16.9792V13.6461H19.8897V15.1055ZM8.73266 16.0785H9.70284V15.1055H8.73266V16.0785ZM3.88177 12.6731H1.94141V26.2947C1.94141 27.365 2.81457 28.2406 3.88177 28.2406H17.4643V26.2947H3.88177V12.6731ZM13.5836 18.0245H14.5537V15.1055H13.5836V18.0245Z" fill="white"/>
<path d="M3.88176 6.35133H10.673H17.4643M1.94141 1H12.1283H16.7366H18.3748C19.4794 1 20.3748 1.89543 20.3748 3V4.89188" stroke="white" stroke-width="2"/>
<path fill-rule="evenodd" clip-rule="evenodd" d="M20.0784 18.5156C19.7034 18.5156 19.3994 18.8196 19.3994 19.1946V29.2169H15.6236C15.5389 29.2169 15.4926 29.3156 15.5467 29.3808L20.1845 34.9621C20.2245 35.0102 20.2983 35.0102 20.3383 34.9621L24.9761 29.3808C25.0303 29.3156 24.9839 29.2169 24.8992 29.2169H21.3394V25.9252V19.5156C21.3394 18.9633 20.8917 18.5156 20.3394 18.5156H20.0784Z" fill="white"/>
</svg>
