<svg width="104" height="80" viewBox="0 0 104 80" fill="none" xmlns="http://www.w3.org/2000/svg">
<path d="M0.00511566 34.2847L21.7349 19.0452V43.4265H26.3913V0L48.1211 12.1897V17.5232L54.3296 14.4734C54.3296 28.9954 54.3296 28.9169 54.3296 43.4274V44.9512H51.2254C51.2254 31.0739 51.2254 32.933 51.2254 19.0466C47.7383 21.0234 43.8476 23.1634 40.3605 25.1402V43.4274L45.0169 43.4265V26.77L48.1211 25.0986V44.9503H37.2562V23.6182L45.0169 19.0471V13.7117L29.4979 5.33003V44.9512H26.3913H18.6307V25.1402L3.10937 35.8072C3.10937 45.1982 3.10426 58.4212 3.10426 70.8594H40.5925V72.3832H0C0 58.7424 0.00511566 44.8787 0.00511566 34.2847Z" fill="#FFCE00"/>
<path d="M93.1351 35.0484L86.9266 30.7263L86.8993 40.2544L86.9266 46.4873H88.506H90.0309L93.1351 44.9438V40.3819V35.0484ZM83.8224 29.2268V17.399L104 8.38086C104 25.951 104 48.7355 104 69.3351H100.896V60.9501C100.896 42.7655 100.896 28.1086 100.896 12.9524L86.9266 18.9563V21.9873V28.6557L92.8431 31.7251L94.5714 32.9503L96.2394 34.2864L89.2821 30.7263L85.3745 27.2913L83.8224 25.7954V29.2268ZM57.418 43.4199H62.8686L65.1968 43.4296L65.9729 32.7626L57.418 40.3819V36.5722L65.9729 28.6557L74.4914 36.5722L74.5096 40.2544L65.9729 32.7626L65.1968 43.4296H71.4053H77.6138H77.6502V20.4467C86.9266 28.066 89.7886 29.2268 96.2394 34.2864V44.9438H93.1351L90.0309 46.4873H91.6103V49.002L85.3745 48.9919V46.4873H86.9266L86.8993 44.9538H83.8224V29.2268L80.6999 26.4971V40.3819V44.9538H77.6502L67.5341 44.9488L57.418 44.9438V43.4199Z" fill="#FFCE00"/>
<path d="M90.0379 75.929H90.3027L90.4515 75.7099L93.407 71.3574H93.7503L91.1763 75.1481L91.0103 75.3926L91.1444 75.6559L91.9205 77.1798L92.6966 78.7036L92.8356 78.9767H93.1421H94.1942V79.5006H92.6725L92.0355 78.2498L91.2595 76.7259L91.1204 76.4528H90.8139H88.4857H87.9857V76.9528V79.5006H87.4336V72.8813L87.9857 72.8813V75.429V75.929H88.4857H90.0379Z" fill="#FFCE00" stroke="#FFCE00"/>
<path d="M55.3858 76.9527V77.4527H55.8858H58.99C59.6209 77.4527 60.1572 77.2732 60.5316 76.8802C60.9018 76.4917 61.0422 75.9692 61.0422 75.4288C61.0422 74.8881 60.9016 74.3656 60.5313 73.9771C60.1568 73.5843 59.6206 73.405 58.99 73.405H55.8858H55.3858V73.905V76.9527ZM55.8858 77.9765H55.3858V78.4765V79.5011H54.8337V72.8804H58.99C60.0378 72.8804 60.6623 73.2165 61.0343 73.6541C61.4187 74.1064 61.5943 74.7389 61.5943 75.4288C61.5943 75.9783 61.4253 76.6224 61.0259 77.1183C60.641 77.5961 60.0114 77.9765 58.99 77.9765H55.8858ZM103.502 71.8874L100.899 71.8813L100.398 71.8802V72.3813V79.5L99.8454 79.4999V72.381V71.8808L99.3452 71.881L96.7412 71.8822V71.362L103.502 71.3632V71.8874ZM77.1156 78.4765V78.9765H77.6156H83.3241V79.5004H76.5635V72.8804L83.3221 72.8799V73.4044H77.6156H77.1156V73.9044V75.4288V75.9288H77.6156H81.772V76.4527H77.6156H77.1156V76.9527V78.4765ZM50.1779 79.5006L50.1873 72.3826L50.188 71.882H49.6873H45.0243H44.5246L44.5243 72.3817L44.5202 79.5006L43.9689 79.5008L43.972 71.3579L45.0233 71.3574H45.0234H49.6806H49.6807L50.7326 71.3579L50.7296 79.5008L50.1779 79.5006ZM66.2507 76.1907C66.2507 77.0321 66.4656 77.7544 66.9825 78.2619C67.4976 78.7677 68.228 78.9765 69.0789 78.9765C69.9297 78.9765 70.6602 78.7677 71.1753 78.2619C71.5866 77.8581 71.8067 77.3183 71.8794 76.6907H72.4304C72.3364 77.485 72.0171 78.1292 71.5419 78.5957C70.9697 79.1573 70.1321 79.5001 69.0787 79.5004C68.0256 79.5007 67.1881 79.158 66.616 78.5962C66.0446 78.0352 65.6986 77.2172 65.6986 76.1907C65.6986 75.1643 66.0446 74.3464 66.616 73.7854C67.1881 73.2236 68.0258 72.8807 69.079 72.8804C70.1321 72.8801 70.9696 73.223 71.5418 73.7849C72.017 74.2517 72.3364 74.8963 72.4304 75.6907H71.8766C71.7956 75.0537 71.5519 74.5176 71.131 74.1197C70.6099 73.6268 69.8895 73.4147 69.0849 73.405C68.272 73.3952 67.5474 73.6086 67.0247 74.1085C66.4992 74.6112 66.2507 75.3337 66.2507 76.1907Z" fill="#FFCE00" stroke="#FFCE00"/>
<path d="M92.5377 62.0172C92.5716 61.9724 92.6046 61.927 92.6367 61.8808V63.2394V64.4721C91.4946 65.3029 90.0831 65.7871 88.4803 65.7871C84.1526 65.7871 81.2196 62.257 81.2196 57.9059V50.0247H83.3239V57.9059C83.3239 59.475 83.6064 60.9381 84.4228 62.0172C85.2599 63.1236 86.5901 63.7394 88.4803 63.7394C90.3704 63.7394 91.7006 63.1236 92.5377 62.0172ZM93.6367 65.7871V64.9627C94.51 64.2317 95.2209 63.314 95.7409 62.2711V63.2394V65.7871H93.6367ZM95.7409 45.4531V57.9059C95.7409 60.136 94.9705 62.1504 93.6367 63.5844V63.2394V60.1917V57.9059V45.4531H95.7409ZM46.1273 57.1559L46.1389 57.644H46.6272H53.6117C54.6942 57.644 55.4788 57.4585 55.936 56.8838C56.1593 56.6032 56.2668 56.2738 56.3221 55.9399C56.3767 55.61 56.3855 55.2405 56.3855 54.8582C56.3855 54.1227 56.3505 53.364 55.9016 52.8242C55.4315 52.2589 54.6418 52.0724 53.5574 52.0724L46.5184 52.0724H46.0063L46.0185 52.5843L46.1273 57.1559ZM43.9685 50.0247H53.5574C55.4501 50.0247 56.6451 50.3997 57.3784 51.1196C58.1094 51.8373 58.4898 53.0047 58.4898 54.8582C58.4898 56.7157 58.1213 57.883 57.4028 58.5995C56.6839 59.3166 55.5049 59.6917 53.6117 59.6917H46.5728H46.0728V60.1917V65.7871H43.9685V50.0247ZM31.5515 52.5724V52.0724H31.0515L25.343 52.0724V50.0247H39.8643V52.0724L34.1557 52.0724H33.6557V52.5724V65.8448H31.5515V52.5724ZM64.6983 57.9059C64.6983 59.4445 64.8766 60.9161 65.6458 62.0042C66.4442 63.1335 67.7924 63.7394 69.8547 63.7394C71.9171 63.7394 73.2652 63.1335 74.0636 62.0042C74.749 61.0346 74.9652 59.7605 75.0042 58.4059H77.1056C77.0262 60.4109 76.4637 62.1911 75.387 63.4921C74.2338 64.8856 72.4434 65.7871 69.8547 65.7871C67.2685 65.7871 65.4776 64.8729 64.3232 63.4714C63.1565 62.055 62.5941 60.0843 62.5941 57.9059C62.5941 55.7275 63.1565 53.7576 64.3301 52.3416C65.4916 50.9403 67.2982 50.0247 69.918 50.0247C72.4731 50.0247 74.2478 50.9248 75.3939 52.3186C76.4642 53.62 77.0262 55.4009 77.1056 57.4059H75.0048C74.9688 56.0573 74.7675 54.7926 74.0975 53.8277C73.3155 52.7016 71.9823 52.0957 69.9236 52.0724C67.8691 52.0492 66.5021 52.6115 65.6827 53.7286C64.8923 54.8062 64.6983 56.2934 64.6983 57.9059ZM10.3738 57.9059C10.3738 59.2954 10.5553 60.7688 11.314 61.9031C12.1003 63.0786 13.4401 63.797 15.5302 63.797C17.532 63.797 18.8147 63.4043 19.707 62.7473C20.4023 62.2352 20.8194 61.5889 21.1519 60.9708L22.6411 61.9455C22.2715 62.6559 21.77 63.5116 20.8852 64.2456C19.8395 65.113 18.2112 65.8448 15.5302 65.8448C12.9088 65.8448 11.1147 64.7623 9.96258 63.2508C8.7968 61.7215 8.26953 59.7248 8.26953 57.9059C8.26953 56.0823 8.77268 54.1015 9.92318 52.5895C11.0591 51.0966 12.851 50.0247 15.5302 50.0247C17.9396 50.0247 19.5753 50.7502 20.6978 51.6429C21.6449 52.396 22.2476 53.2851 22.6365 54.0102L21.1506 54.919C20.8249 54.3317 20.4153 53.6837 19.7294 53.1638C18.8437 52.4925 17.5599 52.0724 15.5302 52.0724C13.4986 52.0724 12.1397 52.5642 11.329 53.6524C10.5486 54.7001 10.3738 56.186 10.3738 57.9059Z" fill="#FFCE00" stroke="#FFCE00"/>
</svg>
