<svg width="26" height="36" viewBox="0 0 26 36" fill="none" xmlns="http://www.w3.org/2000/svg">
<path d="M20.1814 8.78125H8.07347C6.96358 8.78125 6.05549 9.65692 6.05549 10.7272V22.4028C6.05549 23.4731 6.96358 24.3488 8.07347 24.3488H20.1814C21.2912 24.3488 22.1993 23.4731 22.1993 22.4028V10.7272C22.1993 9.65692 21.2912 8.78125 20.1814 8.78125ZM11.6049 16.0785C11.6049 16.8861 10.9289 17.538 10.0915 17.538H9.08246V19.4839H7.56898V13.6461H10.0915C10.9289 13.6461 11.6049 14.298 11.6049 15.1055V16.0785ZM16.6499 18.0245C16.6499 18.832 15.9739 19.4839 15.1364 19.4839H12.6139V13.6461H15.1364C15.9739 13.6461 16.6499 14.298 16.6499 15.1055V18.0245ZM20.6859 15.1055H19.1724V16.0785H20.6859V17.538H19.1724V19.4839H17.6589V13.6461H20.6859V15.1055ZM9.08246 16.0785H10.0915V15.1055H9.08246V16.0785ZM4.03751 12.6731H2.01953V26.2947C2.01953 27.365 2.92762 28.2406 4.03751 28.2406H18.1634V26.2947H4.03751V12.6731ZM14.1274 18.0245H15.1364V15.1055H14.1274V18.0245Z" fill="#FFCE00"/>
<path d="M4.03751 6.35133H11.1004H18.1634M2.01953 1H12.6139H17.4066H19.1903C20.2949 1 21.1903 1.89543 21.1903 3V4.89188" stroke="#FFCE00" stroke-width="2"/>
<path fill-rule="evenodd" clip-rule="evenodd" d="M20.8843 18.5156C20.4943 18.5156 20.1782 18.8318 20.1782 19.2217V29.2169H16.2447C16.1591 29.2169 16.1131 29.3175 16.1691 29.3823L20.9954 34.9671C21.0353 35.0133 21.1069 35.0133 21.1468 34.9671L25.9731 29.3823C26.0291 29.3175 25.9831 29.2169 25.8975 29.2169H22.1957V25.9252V19.5156C22.1957 18.9633 21.748 18.5156 21.1957 18.5156H20.8843Z" fill="#FFCE00"/>
</svg>
